<?xml version="1.0" standalone="no"?>
<!DOCTYPE svg PUBLIC "-//W3C//DTD SVG 20010904//EN"
 "http://www.w3.org/TR/2001/REC-SVG-20010904/DTD/svg10.dtd">
<svg version="1.0" xmlns="http://www.w3.org/2000/svg"
 width="736.000000pt" height="736.000000pt" viewBox="0 0 736.000000 736.000000"
 preserveAspectRatio="xMidYMid meet">

<g transform="translate(0.000000,736.000000) scale(0.100000,-0.100000)"
fill="#000000" stroke="none">
<path d="M3500 6414 c-770 -58 -1468 -421 -1947 -1014 -611 -757 -773 -1756
-435 -2685 43 -119 171 -380 238 -485 438 -688 1112 -1133 1911 -1261 164 -26
500 -36 668 -20 939 91 1755 640 2184 1472 205 397 301 797 301 1252 0 322
-39 573 -134 862 -142 430 -369 792 -697 1110 -425 412 -955 670 -1542 750
-111 15 -441 27 -547 19z m580 -303 c202 -33 470 -110 580 -166 l25 -13 -35
-5 c-200 -30 -247 -44 -363 -104 -109 -57 -239 -190 -299 -308 -25 -49 -52
-110 -59 -135 -15 -52 -23 -60 -64 -60 -46 0 -143 -28 -204 -58 -83 -41 -173
-135 -216 -223 -30 -64 -42 -99 -32 -99 1 0 56 11 121 25 221 45 368 58 626
52 250 -5 395 -24 615 -81 359 -91 745 -280 1015 -496 92 -73 260 -230 260
-242 0 -5 -9 -22 -20 -37 l-19 -28 -168 33 c-92 18 -168 32 -170 30 -3 -2 140
-110 235 -176 60 -43 62 -45 56 -80 -3 -19 -19 -63 -35 -96 -106 -223 -545
-415 -1034 -452 l-100 -8 110 -26 c277 -67 571 -73 856 -18 56 11 105 17 108
14 12 -11 13 -290 2 -382 -24 -191 -98 -448 -186 -640 -45 -97 -27 -95 -215
-30 -342 118 -655 307 -897 543 -57 55 -103 97 -103 94 0 -17 96 -188 154
-277 79 -118 224 -291 317 -376 125 -116 305 -249 436 -322 29 -16 52 -32 50
-35 -1 -3 -33 -34 -72 -68 -145 -129 -404 -312 -528 -372 l-46 -22 -58 44
c-32 24 -105 89 -162 144 -203 196 -383 435 -560 744 -39 68 -72 126 -75 128
-11 11 43 -251 76 -367 64 -224 194 -513 336 -745 40 -67 57 -102 49 -106 -22
-12 -221 -58 -317 -74 -52 -9 -165 -19 -250 -22 l-155 -6 -61 94 c-75 115
-149 260 -199 394 -42 112 -105 350 -105 398 -1 57 -16 8 -36 -113 -29 -174
-27 -466 4 -619 13 -62 21 -115 19 -118 -8 -8 -281 58 -402 98 -66 21 -158 58
-205 81 -83 42 -85 44 -102 97 -68 206 -67 474 2 716 21 74 59 175 70 188 4 4
54 18 111 31 474 108 833 375 1067 798 41 73 106 231 128 307 16 59 16 60 -5
90 -44 61 -136 133 -231 178 -52 25 -101 48 -109 52 -7 4 -21 38 -31 76 -57
222 -177 424 -325 546 -57 47 -212 136 -221 127 -2 -3 7 -37 20 -76 66 -193
75 -393 22 -508 -15 -34 -43 -76 -61 -94 l-33 -32 -25 48 c-38 75 -76 119
-142 169 -33 25 -63 45 -66 45 -4 0 0 -28 8 -62 18 -77 12 -163 -18 -243 l-22
-58 -91 6 c-155 11 -347 74 -477 158 l-46 29 -5 99 c-4 83 -10 109 -35 163
-36 78 -90 139 -151 175 -44 26 -45 26 -59 7 -9 -10 -28 -47 -44 -80 -67 -139
-54 -268 35 -362 36 -39 41 -32 -81 -100 -165 -90 -373 -261 -479 -391 -32
-40 -51 -56 -56 -48 -5 7 -6 116 -4 242 5 297 28 448 83 538 238 391 676 627
1218 654 l130 7 -50 13 c-90 24 -268 51 -380 58 -185 12 -467 -22 -619 -75
-33 -11 -61 -18 -63 -16 -2 2 37 64 86 139 134 203 253 319 421 410 138 76
351 127 525 127 91 0 265 -22 343 -44 69 -19 59 -6 -47 65 -96 64 -250 138
-364 175 l-87 28 37 23 c257 157 581 265 920 308 160 21 540 13 703 -14z m360
-537 c32 -28 60 -73 60 -99 0 -13 -21 -15 -145 -15 -83 0 -145 4 -145 9 0 21
22 67 43 90 29 31 52 40 109 40 36 1 53 -5 78 -25z m-1690 -1959 c14 -7 33
-21 42 -32 18 -19 48 -84 48 -103 0 -6 -58 -10 -165 -10 -161 0 -165 0 -165
21 0 30 39 96 69 116 51 33 115 36 171 8z"/>
<path d="M4402 4697 c-73 -27 -130 -96 -145 -174 l-6 -33 224 0 c251 0 239 -4
214 71 -38 113 -173 177 -287 136z"/>
</g>
</svg>
